<svg width="87" height="95" viewBox="0 0 87 95" fill="none" xmlns="http://www.w3.org/2000/svg">
<path fill-rule="evenodd" clip-rule="evenodd" d="M76.1064 54.5264H72.1737V56.513C72.1734 56.7607 72.0919 57.0015 71.9416 57.1992C71.7912 57.3969 71.5802 57.5406 71.3404 57.6086C70.6299 57.8101 69.9437 58.0883 69.2943 58.4383C69.0734 58.5831 68.809 58.6477 68.5456 58.6214C68.2823 58.5951 68.0362 58.4793 67.8488 58.2937L66.433 56.8877L63.6567 59.6448L65.0778 61.0508C65.2537 61.2254 65.3676 61.4521 65.4021 61.6967C65.4366 61.9413 65.39 62.1903 65.2691 62.4062C64.9053 63.0601 64.6151 63.7518 64.4039 64.4688C64.344 64.718 64.2013 64.9398 63.9988 65.0986C63.7963 65.2573 63.5459 65.3437 63.2879 65.3438H61.2822V69.2494H63.2836C63.5329 69.2498 63.7753 69.3308 63.9742 69.4801C64.173 69.6294 64.3176 69.8389 64.3859 70.077C64.4912 70.4428 64.6175 70.8023 64.7643 71.1537C64.9003 71.4801 65.0532 71.7993 65.2224 72.11C65.3682 72.3292 65.4334 72.5917 65.4069 72.853C65.3804 73.1144 65.2637 73.3587 65.0768 73.5445L63.6599 74.9453L66.4373 77.7035L67.853 76.2975C68.0289 76.1229 68.2573 76.01 68.5035 75.976C68.7498 75.9419 69.0005 75.9884 69.2178 76.1085C69.5547 76.2933 69.9017 76.4593 70.2573 76.6057C70.5959 76.7445 70.9419 76.865 71.2936 76.9667C71.5448 77.0262 71.7685 77.1681 71.9285 77.3694C72.0886 77.5707 72.1757 77.8196 72.1758 78.0761V80.0627H76.1085V78.0814C76.1088 77.8337 76.1903 77.5928 76.3407 77.3951C76.491 77.1975 76.702 77.0537 76.9418 76.9857C77.3101 76.8815 77.6721 76.7564 78.026 76.611C78.3547 76.4759 78.6761 76.324 78.989 76.156C79.2096 76.0109 79.4739 75.9461 79.7372 75.9724C80.0004 75.9988 80.2464 76.1147 80.4334 76.3006L81.8492 77.7066L84.6244 74.9453L83.2087 73.5393C83.0327 73.3645 82.9189 73.1375 82.8845 72.8927C82.8502 72.6479 82.8972 72.3987 83.0184 72.1829C83.2047 71.8484 83.3718 71.5037 83.519 71.1505C83.6589 70.8143 83.7803 70.4707 83.8825 70.1213C83.9424 69.8719 84.0852 69.6498 84.2879 69.491C84.4907 69.3322 84.7414 69.2459 84.9996 69.2463H87V65.3407H85.0018C84.7522 65.3407 84.5095 65.2599 84.3104 65.1106C84.1113 64.9612 83.9667 64.7515 83.8985 64.5131C83.7935 64.1472 83.6672 63.7877 83.5201 63.4364C83.3851 63.1099 83.2322 62.791 83.062 62.4811C82.916 62.2618 82.8508 61.999 82.8775 61.7374C82.9042 61.4757 83.0212 61.2313 83.2087 61.0456L84.6244 59.6395L81.8471 56.8824L80.4313 58.2884C80.2551 58.4628 80.0266 58.5755 79.7802 58.6095C79.5338 58.6436 79.283 58.5972 79.0655 58.4774C78.4076 58.1158 77.7114 57.8276 76.9897 57.6181C76.7387 57.5588 76.5151 57.4171 76.3553 57.216C76.1954 57.0148 76.1084 56.766 76.1085 56.5098V54.5264H76.1064ZM76.9429 64.5152C77.5914 65.1588 77.9951 66.0058 78.0852 66.9119C78.1754 67.818 77.9464 68.727 77.4372 69.4842C76.928 70.2414 76.1702 70.7998 75.293 71.0642C74.4157 71.3287 73.4732 71.2829 72.6261 70.9346C71.7791 70.5863 71.0798 69.957 70.6476 69.1541C70.2153 68.3512 70.0768 67.4242 70.2556 66.5312C70.4344 65.6382 70.9195 64.8344 71.6282 64.2568C72.3369 63.6792 73.2254 63.3635 74.1422 63.3636C74.6624 63.3629 75.1776 63.4643 75.6582 63.6619C76.1388 63.8596 76.5754 64.1496 76.9429 64.5152ZM74.1422 61.0836C75.5896 61.0836 76.9922 61.582 78.1111 62.4938C79.2299 63.4057 79.9958 64.6747 80.2782 66.0845C80.5606 67.4943 80.342 68.9577 79.6597 70.2254C78.9774 71.4931 77.8736 72.4867 76.5364 73.0367C75.1992 73.5868 73.7113 73.6594 72.3262 73.2422C70.9411 72.8249 69.7446 71.9436 68.9404 70.7485C68.1363 69.5533 67.7743 68.1182 67.9162 66.6877C68.058 65.2572 68.6949 63.9198 69.7184 62.9034C70.2987 62.3256 70.9883 61.8675 71.7475 61.5552C72.5066 61.2429 73.3205 61.0826 74.1422 61.0836ZM66.7019 14.5172V54.4673C66.615 54.4546 66.5272 54.4483 66.4394 54.4483C65.9808 54.448 65.5379 54.6139 65.1937 54.9148C65.1597 54.9413 65.1274 54.9699 65.0969 55.0003L61.7595 58.3148C61.5832 58.4896 61.4435 58.6972 61.3481 58.9257C61.2527 59.1542 61.2036 59.3991 61.2036 59.6464C61.2036 59.8938 61.2527 60.1387 61.3481 60.3672C61.4435 60.5956 61.5832 60.8032 61.7595 60.978L62.867 62.079C62.7905 62.2415 62.7196 62.4048 62.6544 62.5688C62.5864 62.7334 62.5205 62.8991 62.4588 63.0659H60.8868C60.6374 63.0658 60.3904 63.1146 60.1601 63.2095C59.9297 63.3044 59.7205 63.4436 59.5444 63.619C59.3679 63.7932 59.2277 64.0002 59.1319 64.2283C59.0362 64.4563 58.9867 64.7009 58.9864 64.948V69.6347C58.9875 70.1349 59.1881 70.6143 59.5442 70.968C59.9004 71.3218 60.3831 71.521 60.8868 71.5221H62.4514C62.5131 71.6889 62.5786 71.8546 62.648 72.0192C62.7175 72.1839 62.7883 72.3472 62.8606 72.509L61.7531 73.6089C61.4126 73.9457 61.2142 74.3986 61.1982 74.8756C61.1822 75.3525 61.3498 75.8176 61.667 76.1761C61.694 76.2096 61.7227 76.2417 61.7531 76.2721L65.0906 79.5856C65.2666 79.761 65.4758 79.9001 65.7062 79.9948C65.9366 80.0896 66.1836 80.1381 66.433 80.1376C66.5208 80.1375 66.6085 80.1315 66.6955 80.1197V86.7265C66.696 86.8382 66.6742 86.9489 66.6314 87.0522C66.5885 87.1554 66.5254 87.2492 66.4458 87.3281C66.3673 87.406 66.2742 87.4677 66.1717 87.5097C66.0691 87.5517 65.9593 87.5732 65.8484 87.573H0.848198C0.737125 87.5734 0.627077 87.5519 0.524381 87.5099C0.421685 87.4679 0.328366 87.4061 0.249788 87.3281C0.17015 87.2492 0.107066 87.1554 0.0641903 87.0522C0.0213145 86.9489 -0.000500548 86.8382 8.71483e-06 86.7265V0.844468C-0.000313883 0.618961 0.0895264 0.402551 0.249788 0.242794C0.32854 0.165212 0.421939 0.10383 0.524627 0.0621688C0.627315 0.0205072 0.737274 -0.00061495 0.848198 1.36277e-05H52.1222V11.8329C52.1247 12.5433 52.4097 13.224 52.9151 13.7268C53.4206 14.2295 54.1055 14.5136 54.8209 14.5172H66.7019ZM6.80997 89.8636H65.8527C66.6859 89.8594 67.4837 89.5285 68.0723 88.9429C68.661 88.3573 68.9929 87.5645 68.9956 86.737V78.5458C69.1243 78.6039 69.2529 78.6598 69.3825 78.7126C69.5483 78.783 69.7152 78.8477 69.8832 78.9068V80.4617C69.884 80.9605 70.0844 81.4385 70.4401 81.7906C70.6156 81.9657 70.8241 82.1046 71.0538 82.1995C71.2834 82.2944 71.5296 82.3434 71.7783 82.3438H72.99V94.1429C72.9889 94.3699 72.8976 94.5872 72.736 94.7477C72.5744 94.9082 72.3555 94.9989 72.1269 95H7.67304C7.44448 94.9989 7.22561 94.9082 7.06399 94.7477C6.90238 94.5872 6.81109 94.3699 6.80997 94.1429V89.8636ZM72.9942 52.2506H71.7826C71.279 52.2511 70.7962 52.4501 70.4401 52.8037C70.084 53.1573 69.8837 53.6368 69.8832 54.1369V55.6917C69.7152 55.753 69.5473 55.8173 69.3815 55.886C69.2529 55.9387 69.1243 55.9915 68.9956 56.0527V13.3772C68.996 13.2285 68.9668 13.0812 68.9097 12.9437C68.8526 12.8062 68.7687 12.6813 68.6629 12.576L63.4835 7.41748H72.1354C72.364 7.41859 72.5829 7.50925 72.7445 7.66975C72.9061 7.83026 72.9974 8.04762 72.9985 8.2746V52.2506H72.9942ZM59.9685 7.14092C59.9249 7.10342 59.884 7.06285 59.8462 7.01953L54.4181 1.61398V11.8329C54.4179 11.9411 54.4607 12.045 54.5371 12.1221C54.5744 12.159 54.6187 12.1881 54.6674 12.2079C54.7161 12.2276 54.7683 12.2376 54.8209 12.2372H65.0863L59.9685 7.14092ZM25.6189 44.4668C25.3228 44.1737 24.9335 43.9917 24.5173 43.9518C24.1011 43.9118 23.6839 44.0164 23.3367 44.2478C22.9895 44.4791 22.7339 44.8229 22.6133 45.2204C22.4927 45.618 22.5147 46.0448 22.6755 46.4281C22.8364 46.8114 23.126 47.1274 23.4952 47.3223C23.8643 47.5173 24.2901 47.579 24.7 47.4971C25.1099 47.4152 25.4785 47.1946 25.7429 46.873C26.0074 46.5514 26.1514 46.1487 26.1504 45.7335C26.1492 45.258 25.9581 44.8025 25.6189 44.4668ZM37.5563 38.0279C37.2602 37.7348 36.8708 37.5527 36.4547 37.5128C36.0385 37.4729 35.6213 37.5775 35.2741 37.8088C34.9269 38.0402 34.6712 38.3839 34.5507 38.7815C34.4301 39.1791 34.4521 39.6059 34.6129 39.9891C34.7737 40.3724 35.0634 40.6884 35.4325 40.8834C35.8017 41.0783 36.2275 41.1401 36.6374 41.0581C37.0472 40.9762 37.4158 40.7556 37.6803 40.4341C37.9448 40.1125 38.0888 39.7098 38.0878 39.2946C38.0866 38.8191 37.8954 38.3635 37.5563 38.0279ZM49.4926 44.4668C49.1964 44.1737 48.8071 43.9917 48.391 43.9518C47.9748 43.9118 47.5576 44.0164 47.2104 44.2478C46.8632 44.4791 46.6075 44.8229 46.487 45.2204C46.3664 45.618 46.3884 46.0448 46.5492 46.4281C46.71 46.8114 46.9997 47.1274 47.3688 47.3223C47.738 47.5173 48.1638 47.579 48.5737 47.4971C48.9835 47.4152 49.3521 47.1946 49.6166 46.873C49.8811 46.5514 50.0251 46.1487 50.024 45.7335C50.0229 45.258 49.8317 44.8025 49.4926 44.4668ZM13.6816 38.0279C13.3854 37.7348 12.9961 37.5527 12.5799 37.5128C12.1638 37.4729 11.7466 37.5775 11.3994 37.8088C11.0522 38.0402 10.7965 38.3839 10.676 38.7815C10.5554 39.1791 10.5774 39.6059 10.7382 39.9891C10.899 40.3724 11.1887 40.6884 11.5578 40.8834C11.927 41.0783 12.3528 41.1401 12.7626 41.0581C13.1725 40.9762 13.5411 40.7556 13.8056 40.4341C14.0701 40.1125 14.214 39.7098 14.213 39.2946C14.2119 38.8191 14.0207 38.3635 13.6816 38.0279ZM12.4061 35.2211C11.753 35.2204 11.1091 35.3745 10.528 35.6705C9.94687 35.9665 9.44522 36.3959 9.06469 36.923C8.68417 37.4502 8.43577 38.0599 8.3401 38.7015C8.24443 39.3431 8.30426 39.9981 8.51462 40.6121C8.72498 41.2262 9.0798 41.7815 9.54962 42.2321C10.0194 42.6826 10.5907 43.0154 11.216 43.2027C11.8413 43.39 12.5025 43.4265 13.1449 43.3091C13.7872 43.1917 14.392 42.9239 14.9092 42.5278L20.2853 45.0717C20.2494 45.2919 20.2313 45.5146 20.2311 45.7377C20.2311 46.8189 20.6636 47.8558 21.4334 48.6203C22.2032 49.3848 23.2473 49.8143 24.336 49.8143C25.4247 49.8143 26.4688 49.3848 27.2386 48.6203C28.0084 47.8558 28.4409 46.8189 28.4409 45.7377C28.4408 45.5385 28.4266 45.3396 28.3984 45.1424L33.5715 42.3705C34.3552 43.0515 35.3702 43.4111 36.411 43.3764C37.4517 43.3417 38.4403 42.9153 39.1762 42.1836C39.2282 42.1319 39.2824 42.0781 39.3292 42.0232L44.192 44.8986C44.1339 45.1763 44.1047 45.4593 44.1048 45.743C44.1047 46.3653 44.248 46.9793 44.5238 47.5381C44.7995 48.0969 45.2004 48.5855 45.6956 48.9667C46.1909 49.3479 46.7674 49.6114 47.3811 49.7372C47.9948 49.8629 48.6293 49.8475 49.236 49.6921C49.8427 49.5367 50.4056 49.2455 50.8815 48.8407C51.3575 48.436 51.7338 47.9284 51.9817 47.3569C52.2296 46.7854 52.3425 46.1652 52.3118 45.5436C52.281 44.9221 52.1075 44.3158 51.8044 43.7712L57.8948 36.206V39.3727C57.8948 39.675 58.0157 39.965 58.231 40.1788C58.4463 40.3926 58.7383 40.5127 59.0427 40.5127C59.3472 40.5127 59.6391 40.3926 59.8544 40.1788C60.0697 39.965 60.1906 39.675 60.1906 39.3727V33.7212C60.1906 33.4202 60.0702 33.1316 59.856 32.9188C59.6417 32.706 59.3511 32.5864 59.048 32.5864H53.3573C53.2042 32.5818 53.0518 32.6077 52.909 32.6627C52.7663 32.7177 52.6361 32.8005 52.5261 32.9064C52.4162 33.0123 52.3288 33.139 52.2692 33.2791C52.2095 33.4191 52.1787 33.5696 52.1787 33.7217C52.1787 33.8738 52.2095 34.0243 52.2692 34.1643C52.3288 34.3044 52.4162 34.4311 52.5261 34.537C52.6361 34.6428 52.7663 34.7257 52.909 34.7807C53.0518 34.8357 53.2042 34.8616 53.3573 34.8569H56.0517L50.1782 42.1572C49.3994 41.7353 48.5039 41.5754 47.6259 41.7013C46.7479 41.8273 45.9347 42.2324 45.308 42.856L45.2676 42.8961L40.323 39.9722C40.3598 39.7507 40.3783 39.5265 40.3783 39.3019C40.3814 38.7158 40.2573 38.1359 40.0143 37.6017C39.7712 37.0675 39.4151 36.5917 38.9701 36.2066C38.5251 35.8216 38.0017 35.5363 37.4357 35.3704C36.8696 35.2044 36.2741 35.1616 35.6899 35.245C35.1057 35.3283 34.5464 35.5357 34.0503 35.8532C33.5541 36.1707 33.1327 36.5906 32.8148 37.0845C32.4969 37.5784 32.29 38.1345 32.2082 38.715C32.1264 39.2955 32.1716 39.8867 32.3407 40.4483L27.4514 43.0703C27.3865 42.9954 27.3196 42.9236 27.2494 42.8592C26.8684 42.4804 26.4159 42.1798 25.9178 41.9748C25.4197 41.7697 24.8858 41.6642 24.3467 41.6642C23.8075 41.6642 23.2736 41.7697 22.7755 41.9748C22.2774 42.1798 21.8249 42.4804 21.4439 42.8592C21.3918 42.912 21.3376 42.9648 21.2898 43.0218L16.2772 40.6499C16.4937 40.0352 16.5589 39.378 16.4673 38.7333C16.3757 38.0885 16.13 37.4748 15.7507 36.9436C15.3714 36.4125 14.8696 35.9792 14.2871 35.6801C13.7047 35.3809 13.0586 35.2247 12.4029 35.2243L12.4061 35.2211ZM46.407 67.3104H50.0262V55.5936H46.4038V67.3104H46.407ZM34.4707 67.3104H38.0846V48.4315H34.4665V67.3093L34.4707 67.3104ZM22.5334 67.3104H26.1472V55.5936H22.5334V67.3104ZM10.596 67.3104H14.2098V49.9062H10.596V67.3104ZM6.51236 69.5893H54.1481C54.4525 69.5893 54.7445 69.4692 54.9598 69.2554C55.1751 69.0416 55.296 68.7517 55.296 68.4493C55.296 68.147 55.1751 67.857 54.9598 67.6432C54.7445 67.4294 54.4525 67.3093 54.1481 67.3093H52.3231V54.4514C52.3228 54.1492 52.2018 53.8594 51.9866 53.6456C51.7713 53.4319 51.4795 53.3117 51.1752 53.3114H45.2559C44.9515 53.3117 44.6597 53.4319 44.4445 53.6456C44.2293 53.8594 44.1083 54.1492 44.108 54.4514V67.3093H40.3815V47.2894C40.3816 47.1397 40.352 46.9914 40.2944 46.853C40.2367 46.7146 40.1522 46.5889 40.0456 46.483C39.9389 46.3771 39.8123 46.2931 39.673 46.2359C39.5337 46.1787 39.3843 46.1493 39.2336 46.1494H33.3196C33.1688 46.1493 33.0195 46.1787 32.8801 46.2359C32.7408 46.2931 32.6142 46.3771 32.5076 46.483C32.401 46.5889 32.3164 46.7146 32.2588 46.853C32.2011 46.9914 32.1715 47.1397 32.1717 47.2894V67.3093H28.4441V54.4514C28.4441 54.1491 28.3232 53.8591 28.1079 53.6453C27.8926 53.4315 27.6006 53.3114 27.2962 53.3114H21.3822C21.0779 53.3117 20.7861 53.4319 20.5708 53.6456C20.3556 53.8594 20.2346 54.1492 20.2343 54.4514V67.3093H16.5036V48.7672C16.5033 48.4649 16.3822 48.1751 16.167 47.9614C15.9518 47.7477 15.66 47.6275 15.3556 47.6272H9.44488C9.14052 47.6275 8.84871 47.7477 8.63349 47.9614C8.41827 48.1751 8.29724 48.4649 8.29696 48.7672V67.3093H6.51236C6.20791 67.3093 5.91593 67.4294 5.70065 67.6432C5.48538 67.857 5.36443 68.147 5.36443 68.4493C5.36443 68.7517 5.48538 69.0416 5.70065 69.2554C5.91593 69.4692 6.20791 69.5893 6.51236 69.5893ZM25.2533 5.31057C21.8844 5.31064 18.6198 6.47075 16.0156 8.59325C13.4115 10.7157 11.6289 13.6693 10.9717 16.9507C10.3145 20.232 10.8233 23.6382 12.4114 26.5888C13.9994 29.5394 16.5686 31.8519 19.681 33.1323C22.7934 34.4126 26.2566 34.5816 29.4804 33.6105C32.7042 32.6393 35.4893 30.5881 37.361 27.8064C39.2327 25.0246 40.0753 21.6844 39.7452 18.3548C39.4151 15.0253 37.9327 11.9124 35.5506 9.54656C34.1999 8.20159 32.5948 7.13498 30.8276 6.40803C29.0605 5.68108 27.1661 5.30811 25.2533 5.31057ZM26.4012 7.64337V18.6329H37.4681C37.2 15.8081 35.9479 13.1648 33.9277 11.1587C31.9074 9.15252 29.2456 7.9093 26.4012 7.64337ZM37.4681 20.9129H25.2533C25.1025 20.913 24.9532 20.8837 24.8138 20.8264C24.6745 20.7692 24.5479 20.6852 24.4413 20.5793C24.3347 20.4734 24.2501 20.3477 24.1925 20.2093C24.1348 20.071 24.1052 19.9226 24.1054 19.7729V7.64337C21.7874 7.86009 19.5794 8.72744 17.7394 10.1441C15.8993 11.5607 14.5032 13.4681 13.7142 15.6435C12.9252 17.8188 12.7758 20.1722 13.2835 22.4288C13.7913 24.6853 14.9351 26.7517 16.5815 28.3866C18.2279 30.0215 20.3087 31.1573 22.5809 31.6613C24.8532 32.1654 27.2229 32.0169 29.4133 31.2331C31.6036 30.4493 33.5242 29.0627 34.9505 27.2352C36.3769 25.4078 37.25 23.2149 37.4681 20.9129Z" fill="#164B88"/>
</svg>
