<svg width="41" height="40" viewBox="0 0 41 40" fill="none" xmlns="http://www.w3.org/2000/svg">
<path d="M37.1163 30.5507C37.1163 31.1507 36.983 31.7673 36.6997 32.3673C36.4163 32.9673 36.0497 33.534 35.5663 34.0673C34.7497 34.9673 33.8497 35.6173 32.833 36.034C31.833 36.4507 30.7497 36.6673 29.583 36.6673C27.883 36.6673 26.0663 36.2673 24.1497 35.4507C22.233 34.634 20.3163 33.534 18.4163 32.1507C16.4997 30.7507 14.683 29.2006 12.9497 27.484C11.233 25.7507 9.68301 23.934 8.29967 22.034C6.93301 20.134 5.83301 18.234 5.03301 16.3507C4.23301 14.4507 3.83301 12.634 3.83301 10.9007C3.83301 9.76732 4.03301 8.68398 4.43301 7.68398C4.83301 6.66732 5.46634 5.73398 6.34967 4.90065C7.41634 3.85065 8.58301 3.33398 9.81634 3.33398C10.283 3.33398 10.7497 3.43398 11.1663 3.63398C11.5997 3.83398 11.983 4.13398 12.283 4.56732L16.1497 10.0173C16.4497 10.434 16.6663 10.8173 16.8163 11.184C16.9663 11.534 17.0497 11.884 17.0497 12.2007C17.0497 12.6007 16.933 13.0007 16.6997 13.384C16.483 13.7673 16.1663 14.1673 15.7663 14.5673L14.4997 15.884C14.3163 16.0673 14.233 16.284 14.233 16.5507C14.233 16.684 14.2497 16.8007 14.283 16.934C14.333 17.0673 14.383 17.1673 14.4163 17.2673C14.7163 17.8173 15.233 18.534 15.9663 19.4007C16.7163 20.2673 17.5163 21.1507 18.383 22.034C19.283 22.9173 20.1497 23.734 21.033 24.484C21.8997 25.2173 22.6163 25.7173 23.183 26.0173C23.2663 26.0506 23.3663 26.1006 23.483 26.1506C23.6163 26.2006 23.7497 26.2173 23.8997 26.2173C24.183 26.2173 24.3997 26.1173 24.583 25.934L25.8497 24.684C26.2663 24.2673 26.6663 23.9507 27.0497 23.7507C27.433 23.5173 27.8163 23.4007 28.233 23.4007C28.5497 23.4007 28.883 23.4673 29.2497 23.6173C29.6163 23.7673 29.9997 23.984 30.4163 24.2673L35.933 28.184C36.3663 28.484 36.6663 28.834 36.8497 29.2506C37.0163 29.6673 37.1163 30.084 37.1163 30.5507Z" stroke="#164B88" stroke-width="2.5" stroke-miterlimit="10"/>
</svg>
