<svg width="16" height="15" viewBox="0 0 16 15" fill="none" xmlns="http://www.w3.org/2000/svg">
<path d="M8.44745 4.96724C8.34681 6.06225 8.40189 7.04655 8.61064 7.90912C8.51068 8.053 8.39577 8.19204 8.26793 8.32346C8.25501 8.3366 8.24141 8.34905 8.22781 8.36219C7.97691 7.63865 7.4003 7.09424 6.69382 6.88327C7.11063 6.6467 7.39281 6.19431 7.39281 5.67551C7.39281 4.91391 6.78357 4.29412 6.03493 4.29412C5.28628 4.29412 4.67636 4.91391 4.67636 5.67551C4.67636 6.19431 4.95922 6.64739 5.37604 6.88327C4.66887 7.09493 4.09227 7.63932 3.84204 8.36289C3.82844 8.34974 3.81484 8.33729 3.80192 8.32346C2.57119 7.07073 2.57119 5.03148 3.80192 3.77879C5.03333 2.52607 7.03719 2.52607 8.26857 3.77879C8.56027 4.07555 8.7867 4.41727 8.94377 4.79633C8.82001 4.81431 8.69422 4.83023 8.5657 4.84544C8.50315 4.85236 8.45419 4.90355 8.44807 4.96719L8.44745 4.96724ZM4.05896 8.55795C5.20946 9.49732 6.86045 9.49732 8.01088 8.55726C7.75317 7.66977 6.95286 7.05689 6.03483 7.05689C5.11757 7.05689 4.31521 7.66975 4.05879 8.55795L4.05896 8.55795ZM10.7225 11.0614C10.3839 10.8241 10.082 10.5585 9.81684 10.2631C9.59857 10.3323 9.46666 10.3745 9.36398 10.5716L8.64662 11.9433C8.45554 12.3093 8.02581 12.4677 7.64707 12.3127L7.14458 12.1066L8.0673 14.9054C8.08701 14.9649 8.11625 14.9953 8.13529 14.9988C8.15229 15.0015 8.18493 14.9849 8.22097 14.9393L9.48773 13.3275C9.51832 13.2881 9.56864 13.2694 9.61692 13.2791L11.6085 13.6685C11.6683 13.6803 11.7009 13.6699 11.7111 13.6568C11.7241 13.6409 11.7261 13.5994 11.703 13.5406L10.7218 11.06L10.7225 11.0614ZM7.12625 5.67486C7.12625 5.06268 6.63668 4.56395 6.03424 4.56395C5.43248 4.56395 4.94155 5.06199 4.94155 5.67486C4.94155 6.28704 5.4318 6.78646 6.03424 6.78646C6.63668 6.78646 7.12625 6.28773 7.12625 5.67486ZM8.41206 11.8175L9.12942 10.4458C9.25929 10.1968 9.43608 10.1076 9.62851 10.0411C9.44017 9.80596 9.27357 9.55348 9.12874 9.28578C8.95467 8.96275 8.8112 8.61272 8.699 8.23918C8.62352 8.33395 8.5426 8.42664 8.45558 8.51519C7.80824 9.17372 6.94879 9.53549 6.03356 9.53549C5.11834 9.53549 4.25892 9.17301 3.61225 8.51519C2.27815 7.15662 2.27815 4.9459 3.61225 3.58731C4.25888 2.92948 5.11903 2.56701 6.03356 2.56701C6.94809 2.56701 7.80821 2.92948 8.45488 3.58731C8.78739 3.92558 9.04169 4.31778 9.21304 4.75497C9.95013 4.63322 10.5913 4.4589 11.1325 4.23202L10.6586 3.85641C10.4906 3.72221 10.3907 3.54582 10.3614 3.33139L10.1479 1.79367C10.1105 1.52043 9.87797 1.32122 9.60667 1.33021L8.08084 1.38486C7.86597 1.39177 7.67762 1.32191 7.52054 1.17733L6.38637 0.139041C6.18441 -0.0463471 5.88049 -0.0463471 5.67853 0.139041L4.54436 1.17802C4.38797 1.3226 4.19961 1.39245 3.98476 1.38555L2.45825 1.3309C2.18694 1.32191 1.95508 1.52112 1.91699 1.79436L1.70484 3.33208C1.67424 3.54651 1.57428 3.72291 1.40702 3.85641L0.203481 4.81238C-0.010034 4.98254 -0.0630557 5.28691 0.0804078 5.5214L0.888877 6.83846C1.00175 7.02246 1.03711 7.22306 0.992912 7.43473L0.674694 8.95446C0.618257 9.22423 0.76989 9.49194 1.02827 9.57701L2.48067 10.0571C2.68399 10.1249 2.83766 10.2556 2.93693 10.4465L3.65293 11.8182C3.78008 12.0617 4.06567 12.1669 4.31793 12.0638L5.73361 11.482C5.93148 11.4018 6.1314 11.4018 6.3279 11.482L7.74358 12.0638C7.99584 12.1668 8.28142 12.0617 8.40858 11.8182L8.41206 11.8175ZM4.12158 12.373C3.836 12.373 3.56333 12.2153 3.42122 11.9441L2.70522 10.5724C2.6379 10.4437 2.53795 10.3587 2.40127 10.313L1.42417 9.98997L0.0193666 13.5421C-0.00375169 13.6002 -0.00103272 13.6424 0.011207 13.6583C0.0214063 13.6707 0.054044 13.6818 0.113881 13.6701L2.10542 13.2806C2.15369 13.2709 2.20333 13.2896 2.23461 13.329L3.50205 14.9408C3.53741 14.9857 3.57073 15.003 3.58705 14.9996C3.60608 14.9961 3.63532 14.9657 3.65504 14.9062L4.52268 12.2721L4.42068 12.3143C4.32277 12.3544 4.22146 12.3738 4.12149 12.3738L4.12158 12.373ZM12.1887 11.5346C11.7209 11.3513 11.3006 11.1334 10.9267 10.8809C10.9138 10.8678 10.8988 10.8574 10.8818 10.8505C10.5411 10.6153 10.2399 10.3504 9.97813 10.055C9.96657 10.0273 9.94685 10.0059 9.92305 9.99203C8.92828 8.82923 8.52642 7.20846 8.70185 5.10153C9.78979 4.96802 10.7037 4.73075 11.432 4.39457C11.4422 4.39112 11.4517 4.38696 11.4605 4.38143C11.7284 4.25554 11.9719 4.1165 12.1881 3.96362C12.9959 4.53431 14.1681 4.91682 15.6742 5.10152C15.9496 8.40253 14.8086 10.5081 12.1881 11.5346L12.1887 11.5346ZM14.7602 6.06025C14.7602 5.99522 14.7147 5.9385 14.6514 5.92674C13.7192 5.75035 12.9114 5.48334 12.2498 5.13332C12.211 5.11326 12.1655 5.11326 12.1274 5.13332C11.4651 5.48334 10.6573 5.75035 9.72575 5.92674C9.66251 5.9385 9.61695 5.99522 9.61695 6.06025C9.62307 8.2095 10.4458 9.64689 12.1314 10.4528C12.1491 10.4611 12.1688 10.4659 12.1878 10.4659C12.2069 10.4659 12.2266 10.4618 12.2443 10.4528C13.9299 9.64623 14.7526 8.2095 14.7587 6.06025H14.7602ZM12.1887 5.40587C12.8346 5.73859 13.6091 5.99591 14.493 6.17161C14.4604 8.14574 13.726 9.42268 12.1887 10.181C10.6513 9.42352 9.91689 8.14591 9.88434 6.17161C10.7669 5.99591 11.5414 5.73859 12.1887 5.40587ZM12.9842 7.04734L11.8242 8.2392L11.4026 7.71419C11.3564 7.65608 11.2721 7.64778 11.2156 7.69482C11.1585 7.74185 11.1504 7.82763 11.1966 7.88504L11.712 8.52627C11.7358 8.55602 11.7712 8.574 11.8086 8.57608H11.8147C11.85 8.57608 11.884 8.56155 11.9092 8.53596L13.1739 7.23689C13.2256 7.18363 13.2256 7.09786 13.1732 7.04529C13.1209 6.99272 13.0366 6.99272 12.9849 7.04598L12.9842 7.04734Z" fill="#164B88"/>
</svg>
