<svg width="28" height="29" viewBox="0 0 28 29" fill="none" xmlns="http://www.w3.org/2000/svg">
<path d="M25.311 12.8313H2.68897C1.20389 12.8313 0 14.0352 0 15.5203V25.4189C0 26.904 1.20389 28.1079 2.68897 28.1079H25.311C26.7961 28.1079 28 26.904 28 25.4189V15.5203C28 14.0352 26.7961 12.8313 25.311 12.8313Z" fill="white"/>
<path d="M3.54166 10.3953H24.4632C24.7117 10.3953 24.95 10.2966 25.1257 10.1209C25.3014 9.94521 25.4001 9.7069 25.4001 9.45841C25.4001 9.20992 25.3014 8.97161 25.1257 8.7959C24.95 8.6202 24.7117 8.52148 24.4632 8.52148H3.54166C3.29317 8.52148 3.05486 8.6202 2.87916 8.7959C2.70345 8.97161 2.60474 9.20992 2.60474 9.45841C2.60474 9.7069 2.70345 9.94521 2.87916 10.1209C3.05486 10.2966 3.29317 10.3953 3.54166 10.3953Z" fill="white"/>
<path d="M6.87735 6.02424H21.128C21.3765 6.02424 21.6148 5.92553 21.7905 5.74982C21.9662 5.57411 22.0649 5.3358 22.0649 5.08732C22.0649 4.83883 21.9662 4.60052 21.7905 4.42481C21.6148 4.2491 21.3765 4.15039 21.128 4.15039H6.87735C6.62887 4.15039 6.39056 4.2491 6.21485 4.42481C6.03914 4.60052 5.94043 4.83883 5.94043 5.08732C5.94043 5.3358 6.03914 5.57411 6.21485 5.74982C6.39056 5.92553 6.62887 6.02424 6.87735 6.02424Z" fill="white"/>
<path d="M11.0326 1.87385H16.9727C17.2212 1.87385 17.4595 1.77514 17.6352 1.59943C17.8109 1.42372 17.9097 1.18541 17.9097 0.936925C17.9097 0.688437 17.8109 0.450126 17.6352 0.274419C17.4595 0.0987114 17.2212 0 16.9727 0H11.0326C10.7841 0 10.5458 0.0987114 10.3701 0.274419C10.1944 0.450126 10.0957 0.688437 10.0957 0.936925C10.0957 1.18541 10.1944 1.42372 10.3701 1.59943C10.5458 1.77514 10.7841 1.87385 11.0326 1.87385Z" fill="white"/>
</svg>
