<svg width="15" height="15" viewBox="0 0 15 15" fill="none" xmlns="http://www.w3.org/2000/svg">
<path fill-rule="evenodd" clip-rule="evenodd" d="M5.47224 1.0614C5.74235 0.43708 6.36353 0 7.08719 0C7.81086 0 8.43203 0.43708 8.70214 1.0614C9.24805 0.655313 10.0046 0.587626 10.6315 0.94944C11.2577 1.31125 11.5778 2.00009 11.4994 2.67561C12.1749 2.59717 12.8644 2.91661 13.2256 3.54345C13.4464 3.92551 13.5071 4.35563 13.4293 4.75666L13.4255 4.75287L10.6062 4.7535C9.84961 3.61557 8.55604 2.8654 7.08727 2.8654C4.75504 2.8654 2.86426 4.75609 2.86426 7.0882C2.86426 9.42031 4.75504 11.311 7.08727 11.311H7.10055V14.017C7.10055 14.0708 7.10371 14.1239 7.11004 14.1764H7.0879C6.36423 14.1764 5.74306 13.7393 5.47295 13.115C4.92704 13.5211 4.17048 13.5888 3.54362 13.227C2.91738 12.8651 2.59729 12.1763 2.67574 11.5008C2.00015 11.5792 1.31065 11.2598 0.949486 10.6329C0.587653 10.0067 0.655343 9.24958 1.06145 8.70372C0.437101 8.43362 0 7.81247 0 7.08884C0 6.36521 0.437101 5.74407 1.06145 5.47397C0.655344 4.92809 0.587654 4.17157 0.949486 3.54474C1.31132 2.91853 2.00018 2.59846 2.67574 2.6769C2.5973 2.00134 2.91675 1.31188 3.54362 0.950727C4.16987 0.58828 4.92636 0.655946 5.47224 1.0614ZM8.48703 5.15514C7.94554 5.15514 7.50276 5.59792 7.50276 6.13936V14.0158C7.50276 14.5572 7.94556 15 8.48703 15H14.0157C14.5572 15 15 14.5572 15 14.0158V7.09831H13.2579C13.1465 7.09831 13.0567 7.00849 13.0567 6.89716L13.0574 5.15512L8.48703 5.15514ZM13.4596 5.35629V6.696H14.7994L13.4596 5.35629ZM8.99243 10.2875L10.3588 11.6538C10.4372 11.7322 10.5644 11.7322 10.6434 11.6538L13.5102 8.78717C13.5886 8.70874 13.5886 8.5816 13.5102 8.50253C13.4318 8.4241 13.3046 8.4241 13.2256 8.50253L10.5005 11.2275L9.27645 10.0035C9.19802 9.92508 9.07088 9.92508 8.9918 10.0035C8.91399 10.082 8.91399 10.2091 8.99243 10.2875Z" fill="#164B88"/>
</svg>
