<svg width="109" height="87" viewBox="0 0 109 87" fill="none" xmlns="http://www.w3.org/2000/svg">
<path d="M101.886 0H7.11368C3.21263 0 0 3.03362 0 6.71731V80.2827C0 83.9664 3.21263 87 7.11368 87H101.886C105.787 87 109 83.9664 109 80.2827V6.82565C109 3.03362 105.787 0 101.886 0ZM33.9621 6.934C35.9126 6.934 37.4042 8.45081 37.4042 10.1843C37.4042 12.0262 35.7979 13.4346 33.9621 13.4346C32.0116 13.4346 30.52 11.9178 30.52 10.1843C30.52 8.45081 32.1263 6.934 33.9621 6.934ZM23.2916 6.934C25.2421 6.934 26.7337 8.45081 26.7337 10.1843C26.7337 12.0262 25.1274 13.4346 23.2916 13.4346C21.3411 13.4346 19.8495 11.9178 19.8495 10.1843C19.7347 8.45081 21.3411 6.934 23.2916 6.934ZM12.5063 6.934C14.4568 6.934 15.9484 8.45081 15.9484 10.1843C15.9484 12.0262 14.3421 13.4346 12.5063 13.4346C10.5558 13.4346 9.06421 11.9178 9.06421 10.1843C9.06421 8.45081 10.5558 6.934 12.5063 6.934ZM100.165 78.7659H8.83474V20.6936H100.165V78.7659Z" fill="#164B88"/>
<path d="M89.7817 40.2917C88.5791 33.5424 82.4323 28.418 74.9493 28.418C73.2121 28.418 71.6086 28.7929 70.0051 29.2929L76.4191 40.4167H89.7817V40.2917Z" fill="#164B88"/>
<path d="M77.0234 54.5323C83.4601 54.5323 88.8623 50.0913 89.7818 44.2422H77.0234C76.2188 44.2422 75.5292 43.809 75.1844 43.2674L69.0925 32.6523C65.9891 34.927 63.9202 38.3931 63.9202 42.4009C64.0351 49.0082 69.7821 54.5323 77.0234 54.5323Z" fill="#164B88"/>
<path d="M18.3164 54.5326C19.0681 54.5326 19.6945 54.2308 20.1957 53.8285L28.8404 44.5755L35.9817 48.7997C36.4829 49.1014 37.1093 49.202 37.7357 49.1014C38.3622 49.0008 38.8633 48.7997 39.2392 48.3974L47.7586 39.1443L50.139 40.5524C50.6402 40.8541 51.2666 40.9547 51.8931 40.653C52.5195 40.4518 52.7701 39.9489 52.8953 39.4461L53.2712 31.9028C53.2712 31.5005 53.0206 30.9976 52.6448 30.7965C52.1436 30.4947 51.6425 30.4947 51.1413 30.5953L42.246 33.0092C41.6196 33.2103 41.2437 33.6126 41.1185 34.1155C40.9932 34.6184 41.2437 35.1213 41.7449 35.423L44.1253 36.8311L36.8587 44.7766L29.7174 40.4518C29.2163 40.1501 28.5898 40.0495 27.9634 40.1501C27.337 40.2507 26.8358 40.4518 26.46 40.8541L16.4371 51.6158C15.6854 52.4205 15.9359 53.6274 16.9382 54.2308C17.3141 54.432 17.8152 54.5326 18.3164 54.5326Z" fill="#164B88"/>
<path d="M36.2704 52.416H32.24C31.6868 52.416 31.2126 53.155 31.2126 54.0171V69.1659C31.2126 70.028 31.6868 70.767 32.24 70.767H36.2704C36.8236 70.767 37.2977 70.028 37.2977 69.1659V54.0171C37.2977 53.155 36.8236 52.416 36.2704 52.416Z" fill="#164B88"/>
<path d="M45.6846 46.7695C44.8548 46.7695 44.1436 47.4895 44.1436 48.3294V69.2071C44.1436 70.047 44.8548 70.7669 45.6846 70.7669H51.7302C52.5599 70.7669 53.2712 70.047 53.2712 69.2071V48.3294C53.2712 47.4895 52.5599 46.7695 51.7302 46.7695H45.6846Z" fill="#164B88"/>
<path d="M20.0799 70.7661H27.133C28.1011 70.7661 28.9309 70.1611 28.9309 69.4553V62.1955C28.9309 61.4897 28.1011 60.8848 27.133 60.8848H20.0799C19.1118 60.8848 18.282 61.4897 18.282 62.1955V69.5561C18.4203 70.2619 19.1118 70.7661 20.0799 70.7661Z" fill="#164B88"/>
<path d="M67.6964 66.5314H90.5696C91.3742 66.5314 92.0638 65.9265 92.0638 65.2207V60.0784C92.0638 59.3726 91.3742 58.7676 90.5696 58.7676H67.6964C66.8918 58.7676 66.2021 59.3726 66.2021 60.0784V65.3215C66.2021 66.0273 66.7769 66.5314 67.6964 66.5314Z" fill="#164B88"/>
</svg>
