<svg width="35" height="33" viewBox="0 0 35 33" fill="none" xmlns="http://www.w3.org/2000/svg">
<path d="M35 20.8256H26.459L24.3009 17.2453C24.1564 17.0127 24.1135 16.7345 24.1819 16.4716C24.2502 16.2086 24.4241 15.9825 24.6655 15.8427L29.2695 13.1777C29.5113 13.0386 29.8006 12.9975 30.0739 13.0632C30.3473 13.1289 30.5823 13.2962 30.7277 13.5284L34.6355 20.005C34.7918 20.2629 34.9143 20.5386 35 20.8256ZM34.938 22.9891H23.2037V20.787C23.2007 20.6687 23.16 20.5542 23.0873 20.4588C23.0145 20.3635 22.9131 20.2919 22.7967 20.2536C22.6803 20.2154 22.5545 20.2125 22.4363 20.2451C22.3181 20.2778 22.2132 20.3445 22.1356 20.4363L17.8924 25.4122C17.6024 25.7516 17.4439 26.1773 17.4439 26.6167C17.4439 27.056 17.6024 27.4817 17.8924 27.8212L22.1611 32.7865C22.2399 32.8796 22.3468 32.9469 22.4671 32.979C22.5874 33.011 22.715 33.0063 22.8324 32.9655C22.9498 32.9246 23.051 32.8497 23.1221 32.751C23.1932 32.6523 23.2306 32.5348 23.2292 32.4148V30.2126L28.566 30.1951C29.2246 30.1935 29.8712 30.0251 30.4407 29.7069C31.0102 29.3887 31.4826 28.9318 31.8103 28.3822L34.6355 23.6168C34.7571 23.4174 34.8584 23.2072 34.938 22.9891ZM14.3966 30.1741C14.5385 30.1737 14.679 30.1459 14.8096 30.0925C14.9403 30.0391 15.0585 29.9611 15.1574 29.8631C15.2562 29.7651 15.3337 29.649 15.3852 29.5217C15.4367 29.3945 15.4612 29.2586 15.4574 29.1221L15.3589 23.9534C15.3541 23.6843 15.2394 23.4278 15.0395 23.2395C14.8396 23.0511 14.5707 22.9461 14.2908 22.947H9.98935L5.72066 30.0689C6.01984 30.1412 6.32716 30.1777 6.63564 30.1776L14.3966 30.1741ZM0.511478 23.6308L3.38036 28.3822C3.50257 28.5795 3.64417 28.765 3.80322 28.9363L9.66492 19.1599L11.648 20.254C11.7551 20.3131 11.8784 20.3391 12.0014 20.3284C12.1243 20.3177 12.2409 20.2709 12.3352 20.1943C12.4296 20.1177 12.4971 20.0151 12.5287 19.9003C12.5604 19.7855 12.5545 19.6641 12.5119 19.5527L10.1425 13.5319C9.98032 13.1181 9.67303 12.7718 9.27367 12.5529C8.87431 12.3339 8.40798 12.256 7.95525 12.3326L1.3572 13.3846C1.23361 13.4033 1.11914 13.4585 1.02972 13.5427C0.94031 13.6268 0.880403 13.7357 0.858342 13.8542C0.836281 13.9726 0.853165 14.0947 0.906642 14.2035C0.960119 14.3123 1.04753 14.4024 1.1567 14.4611L3.13977 15.5552L0.504187 20.005C0.172676 20.5562 -0.00127348 21.182 7.01886e-06 21.8189C0.00128752 22.4557 0.177752 23.0808 0.511478 23.6308ZM11.5532 1.82694L7.6855 8.29657C7.61572 8.41426 7.57092 8.54409 7.55369 8.67856C7.53646 8.81302 7.54715 8.94944 7.58512 9.0799C7.6231 9.21037 7.68761 9.33228 7.77492 9.43859C7.86224 9.5449 7.97062 9.63348 8.09378 9.6992L12.7963 12.2029C13.039 12.3294 13.3233 12.3603 13.5893 12.289C13.8552 12.2177 14.0819 12.0497 14.2216 11.8207L16.3687 8.23345L12.1109 1.11862C11.8954 1.3317 11.708 1.56961 11.5532 1.82694ZM18.1877 12.0381L24.7931 13.0901C25.2438 13.1608 25.706 13.0788 26.1009 12.8582C26.4958 12.6375 26.7989 12.2919 26.9584 11.8803L29.295 5.84898C29.3384 5.73708 29.3447 5.61501 29.3131 5.49953C29.2814 5.38404 29.2134 5.2808 29.1184 5.20397C29.0234 5.12714 28.9059 5.08048 28.7822 5.0704C28.6585 5.06032 28.5346 5.08731 28.4275 5.14767L26.448 6.25224L23.7614 1.79538C23.4305 1.24753 22.9554 0.793171 22.3839 0.478005C21.8125 0.16284 21.1649 -0.00201642 20.5061 1.86149e-05L14.7975 0.0175515C14.5599 0.0203867 14.3231 0.0450447 14.0904 0.0911895L19.9593 9.85699L17.9799 10.9616C17.8706 11.0208 17.7833 11.1114 17.7302 11.2207C17.6771 11.3301 17.6609 11.4526 17.6838 11.5713C17.7067 11.6899 17.7676 11.7987 17.8579 11.8824C17.9483 11.9661 18.0636 12.0205 18.1877 12.0381Z" fill="white"/>
</svg>
