<svg width="16" height="14" viewBox="0 0 16 14" fill="none" xmlns="http://www.w3.org/2000/svg">
<path fill-rule="evenodd" clip-rule="evenodd" d="M2.2593 0C1.01622 0 0 0.980975 0 2.17155V9.1923C0 10.3829 1.01622 11.3639 2.2593 11.3639H3.12004V13.3671C3.12111 13.4873 3.15761 13.6048 3.22533 13.706C3.29305 13.8072 3.38925 13.888 3.50286 13.9392C3.61646 13.9904 3.74286 14.0099 3.86749 13.9953C3.99213 13.9808 4.10994 13.9328 4.20737 13.857L7.37169 11.3639H13.7355C14.9786 11.3639 16 10.3835 16 9.1923V2.17155C16 0.98035 14.9786 0 13.7355 0H2.2593ZM2.2593 1.2765H13.7355C14.2589 1.2765 14.6666 1.66263 14.6666 2.17155V9.1923C14.6666 9.70122 14.2589 10.0873 13.7355 10.0873H7.13079C6.97633 10.0876 6.82674 10.1391 6.70758 10.2332L4.45349 12.0096V10.7231C4.45278 10.5538 4.38187 10.3918 4.25635 10.2725C4.13083 10.1533 3.96098 10.0867 3.78416 10.0874H2.2593C1.73585 10.0874 1.33344 9.70185 1.33344 9.19231V2.17155C1.33344 1.662 1.73585 1.2765 2.2593 1.2765ZM4.4587 3.54778C4.37114 3.54745 4.28438 3.56363 4.20335 3.59541C4.12233 3.62718 4.04864 3.67392 3.98649 3.73295C3.92434 3.79199 3.87494 3.86216 3.84112 3.93948C3.8073 4.01679 3.78972 4.09972 3.78937 4.18353C3.78903 4.26777 3.80611 4.35124 3.83962 4.42912C3.87314 4.50701 3.92243 4.57778 3.98465 4.63734C4.04687 4.6969 4.12079 4.74409 4.20215 4.77617C4.28351 4.80826 4.3707 4.8246 4.4587 4.82428H11.5413C11.6289 4.82395 11.7155 4.80712 11.7962 4.77474C11.877 4.74236 11.9503 4.69507 12.012 4.63557C12.0737 4.57608 12.1225 4.50553 12.1557 4.42797C12.1889 4.35041 12.2058 4.26735 12.2054 4.18353C12.2047 4.01512 12.1345 3.8538 12.0101 3.73471C11.8857 3.61563 11.7172 3.54843 11.5413 3.54778H4.4587ZM4.4587 6.53958C4.37114 6.53925 4.28438 6.55543 4.20335 6.5872C4.12233 6.61898 4.04864 6.66572 3.98649 6.72475C3.92434 6.78379 3.87494 6.85396 3.84112 6.93127C3.8073 7.00858 3.78972 7.09152 3.78937 7.17533C3.78903 7.25957 3.80611 7.34304 3.83962 7.42092C3.87314 7.49881 3.92242 7.56958 3.98464 7.62914C4.04687 7.68871 4.12079 7.73589 4.20215 7.76797C4.28351 7.80006 4.3707 7.81641 4.4587 7.81608H8.62179C8.70979 7.81641 8.79698 7.80006 8.87834 7.76798C8.9597 7.73589 9.03362 7.68871 9.09585 7.62914C9.15807 7.56958 9.20736 7.49881 9.24087 7.42093C9.27439 7.34304 9.29147 7.25957 9.29112 7.17533C9.29078 7.09152 9.2732 7.00858 9.23937 6.93127C9.20555 6.85396 9.15615 6.78378 9.094 6.72475C9.03185 6.66571 8.95816 6.61898 8.87713 6.5872C8.79611 6.55543 8.70935 6.53925 8.62179 6.53958H4.4587Z" fill="white"/>
</svg>
