<svg width="16" height="15" viewBox="0 0 16 15" fill="none" xmlns="http://www.w3.org/2000/svg">
<path d="M9.87735 1.30943C9.87735 1.30943 9.86977 1.30693 9.86724 1.30443L7.6014 0.0318759C7.52553 -0.0106253 7.42943 -0.0106253 7.35358 0.0318759L5.10537 1.29693C5.10537 1.29693 5.08767 1.30443 5.07756 1.30943C5.01686 1.34443 4.9764 1.40443 4.96123 1.47193C4.95617 1.48943 4.95364 1.50693 4.95364 1.52694V4.07954C4.95364 4.16954 5.00169 4.25204 5.08009 4.29705L7.35095 5.57212C7.37118 5.58462 7.39141 5.59212 7.41164 5.59712C7.4344 5.60462 7.45716 5.60712 7.47739 5.60712C7.49762 5.60712 7.52038 5.60462 7.54314 5.59712C7.56337 5.59212 7.5836 5.58462 7.6013 5.57462H7.60383L9.87469 4.29706C9.95309 4.25206 10.0011 4.16955 10.0011 4.07954V1.52694C10.0011 1.43694 9.95322 1.35444 9.87735 1.30943ZM7.4775 0.5369L9.23499 1.52695C9.23499 1.52695 9.22487 1.53195 9.22234 1.53445L8.53955 1.91946L7.47743 2.51449L6.41532 1.91946L5.71988 1.52944L7.4775 0.5369ZM9.49556 3.9345L7.73047 4.92705V2.94951L8.82798 2.33198L9.23007 2.10698L9.46272 1.97447L9.49559 1.95697L9.49556 3.9345Z" fill="#164B88"/>
<path d="M14.9376 6.00663C14.9376 6.00663 14.9351 6.00663 14.9351 6.00413L12.6642 4.72906C12.5858 4.68406 12.4923 4.68406 12.4139 4.72906L10.1506 5.99913L10.143 6.00413C10.1253 6.01413 10.1076 6.02663 10.0925 6.04413C10.0925 6.04663 10.0899 6.04663 10.0899 6.04663C10.0444 6.09413 10.0166 6.15663 10.0166 6.22164V8.77681C10.0166 8.86681 10.0647 8.94931 10.1456 8.99432L12.4088 10.2644C12.4088 10.2644 12.4114 10.2694 12.4139 10.2694C12.4543 10.2919 12.4973 10.3019 12.5429 10.3019C12.5858 10.3019 12.6288 10.2919 12.6668 10.2694L12.6769 10.2644L14.9377 8.99432C15.0186 8.94932 15.0667 8.86681 15.0667 8.77681V6.22164C15.0667 6.13414 15.0186 6.05164 14.9402 6.00663L14.9376 6.00663ZM12.5404 5.2341L14.3004 6.22165L14.2929 6.22665L14.2752 6.23665L12.5403 7.21171H12.5378L12.2091 7.02671L10.7777 6.22168L12.5404 5.2341ZM14.5584 8.6293L12.7933 9.62436V7.64426L13.7998 7.07924L14.5332 6.66673L14.5433 6.66173L14.5585 6.65173L14.5584 8.6293Z" fill="#164B88"/>
<path d="M9.87738 10.702C9.87738 10.702 9.87232 10.6995 9.8698 10.6995L7.60136 9.42445C7.5255 9.38195 7.4294 9.38195 7.35355 9.42445L5.08511 10.6995C5.08511 10.6995 5.08006 10.6995 5.07753 10.702C5.01683 10.737 4.97637 10.797 4.9612 10.8645C4.95614 10.882 4.95361 10.8995 4.95361 10.9195V13.4721C4.95361 13.5621 5.00166 13.6446 5.08006 13.6896L7.35091 14.9647C7.37115 14.9747 7.39138 14.9847 7.41161 14.9897C7.43437 14.9972 7.45713 14.9997 7.47736 14.9997C7.49759 14.9997 7.52035 14.9972 7.54311 14.9897C7.56334 14.9847 7.58357 14.9772 7.60127 14.9672H7.6038L9.87466 13.6897C9.95305 13.6446 10.0011 13.5621 10.0011 13.4721V10.9195C10.0011 10.8295 9.95305 10.747 9.87719 10.702L9.87738 10.702ZM7.47753 9.92949L9.23502 10.9195C9.23502 10.9195 9.2249 10.9245 9.22237 10.927L7.47751 11.9096L5.72003 10.922L7.47753 9.92949ZM9.49559 13.3271L7.7305 14.3196V12.3421L8.88365 11.6946L9.46275 11.367L9.49562 11.3495L9.49559 13.3271Z" fill="#164B88"/>
<path d="M4.92112 6.09471V6.09221L2.65026 4.81714C2.57187 4.77214 2.4783 4.77214 2.3999 4.81714L0.136648 6.0872L0.129062 6.0922H0.126533C0.10883 6.1022 0.0911291 6.1147 0.075956 6.1322C0.075956 6.1347 0.0734272 6.1347 0.0734272 6.1347C0.027908 6.1822 9.15527e-05 6.24471 9.15527e-05 6.30972V8.86488C9.15527e-05 8.95488 0.0481404 9.03738 0.129063 9.08239L2.38989 10.3525C2.38989 10.3525 2.39495 10.355 2.39748 10.3575C2.43794 10.38 2.48093 10.39 2.52392 10.39C2.56944 10.39 2.61243 10.38 2.65036 10.3575L2.65795 10.3525L4.9212 9.08239C5.00212 9.03739 5.05017 8.95489 5.05017 8.86488V6.30972C5.05017 6.22221 5.00212 6.13971 4.92373 6.0947L4.92112 6.09471ZM2.52127 5.32217L4.28393 6.30973L2.8526 7.11476L2.52386 7.29976H2.52133L0.786504 6.3247L0.768802 6.3147L0.761215 6.3097L2.52127 5.32217ZM4.54175 8.71738L2.77407 9.71243V7.7349L4.4406 6.79735L4.51647 6.75485L4.52658 6.74985L4.54175 6.73985V8.71738Z" fill="#164B88"/>
<path d="M1.15525 4.24941C1.29434 4.24941 1.40813 4.1369 1.40813 3.99939V2.49932C1.40813 2.08681 1.74953 1.74929 2.16679 1.74929H3.07465L2.74843 2.0718C2.6498 2.1693 2.6498 2.32682 2.74843 2.42431C2.79901 2.47431 2.86223 2.49681 2.92798 2.49681C2.99374 2.49681 3.05695 2.47181 3.10753 2.42431L3.86619 1.67427C3.88894 1.65177 3.90918 1.62427 3.92182 1.59177C3.94711 1.53177 3.94711 1.46176 3.92182 1.40176C3.90918 1.37176 3.89147 1.34426 3.86619 1.31926L3.10753 0.569223C3.00891 0.471717 2.84958 0.471717 2.75097 0.569223C2.65236 0.666728 2.65234 0.824243 2.75097 0.921736L3.07719 1.24425H2.16933C1.47137 1.24425 0.904907 1.80427 0.904907 2.49431V3.99438C0.904907 4.13189 1.0187 4.24439 1.15779 4.24439L1.15525 4.24941Z" fill="#164B88"/>
<path d="M3.93682 13.5002H2.41951C2.00226 13.5002 1.66086 13.1627 1.66086 12.7502V11.8526L1.98708 12.1751C2.03765 12.2251 2.10088 12.2476 2.16663 12.2476C2.23238 12.2476 2.2956 12.2226 2.34618 12.1751C2.44481 12.0776 2.44481 11.9201 2.34618 11.8226L1.58753 11.0726C1.56477 11.0501 1.53695 11.0301 1.50408 11.0176C1.44339 10.9926 1.37258 10.9926 1.31189 11.0176C1.28154 11.0301 1.25372 11.0476 1.22844 11.0726L0.469782 11.8226C0.371157 11.9201 0.371157 12.0776 0.469782 12.1751C0.520359 12.2251 0.583579 12.2476 0.649334 12.2476C0.715089 12.2476 0.778306 12.2226 0.828886 12.1751L1.1551 11.8526V12.7502C1.1551 13.4402 1.72156 14.0002 2.41952 14.0002H3.93683C4.07592 14.0002 4.18971 13.8877 4.18971 13.7502C4.18971 13.6127 4.07591 13.5002 3.93682 13.5002Z" fill="#164B88"/>
<path d="M13.7995 10.75C13.6604 10.75 13.5466 10.8625 13.5466 11V12.5001C13.5466 12.9126 13.2052 13.2501 12.7879 13.2501H11.8801L12.2063 12.9276C12.3049 12.8301 12.3049 12.6726 12.2063 12.5751C12.1077 12.4776 11.9483 12.4776 11.8497 12.5751L11.0911 13.3251C11.0683 13.3476 11.0481 13.3751 11.0354 13.4076C11.0102 13.4676 11.0102 13.5376 11.0354 13.5976C11.0481 13.6276 11.0658 13.6551 11.0911 13.6801L11.8497 14.4302C11.9003 14.4802 11.9635 14.5027 12.0293 14.5027C12.095 14.5027 12.1583 14.4777 12.2088 14.4302C12.3075 14.3327 12.3075 14.1752 12.2088 14.0777L11.8826 13.7552H12.7905C13.4884 13.7552 14.0549 13.1951 14.0549 12.5051V11.005C14.0549 10.8675 13.9411 10.755 13.802 10.755L13.7995 10.75Z" fill="#164B88"/>
<path d="M11.0177 1.49905H12.535C12.9523 1.49905 13.2937 1.83657 13.2937 2.24908V3.14663L12.9675 2.82412C12.8688 2.72661 12.7095 2.72661 12.6109 2.82412C12.5123 2.92162 12.5123 3.07914 12.6109 3.17663L13.3695 3.92667C13.3923 3.94917 13.4201 3.96917 13.453 3.98167C13.4833 3.99417 13.5162 4.00167 13.5491 4.00167C13.582 4.00167 13.6148 3.99417 13.6452 3.98167C13.6755 3.96917 13.7033 3.95167 13.7286 3.92667L14.4873 3.17663C14.5859 3.07913 14.5859 2.92161 14.4873 2.82412C14.3887 2.72663 14.2293 2.72661 14.1307 2.82412L13.8045 3.14663V2.24908C13.8045 1.55905 13.238 0.999023 12.5401 0.999023H11.0228C10.8837 0.999023 10.7699 1.11153 10.7699 1.24904C10.7699 1.38654 10.8837 1.49905 11.0228 1.49905H11.0177Z" fill="#164B88"/>
</svg>
