<svg width="99" height="94" viewBox="0 0 99 94" fill="none" xmlns="http://www.w3.org/2000/svg">
<path d="M53.2189 31.128C52.5849 37.9901 52.9319 44.1584 54.247 49.5638C53.6173 50.4655 52.8933 51.3368 52.0879 52.1603C52.0066 52.2427 51.9209 52.3207 51.8352 52.4031C50.2545 47.8689 46.6219 44.4573 42.171 43.1351C44.797 41.6527 46.5747 38.8177 46.5747 35.5665C46.5747 30.7938 42.7365 26.9098 38.02 26.9098C33.3036 26.9098 29.4611 30.7938 29.4611 35.5665C29.4611 38.8177 31.2431 41.657 33.869 43.1351C29.4139 44.4616 25.7813 47.8731 24.2049 52.4074C24.1192 52.3251 24.0335 52.247 23.9521 52.1603C16.1985 44.3099 16.1985 31.5306 23.9521 23.6804C31.71 15.83 44.3343 15.83 52.092 23.6804C53.9297 25.5401 55.3562 27.6815 56.3457 30.057C55.5661 30.1697 54.7736 30.2694 53.9639 30.3648C53.5698 30.4081 53.2614 30.7289 53.2228 31.1277L53.2189 31.128ZM25.5715 53.6298C32.8196 59.5166 43.2208 59.5166 50.4685 53.6255C48.845 48.0639 43.803 44.2232 38.0194 44.2232C32.2407 44.2232 27.1869 48.0638 25.5715 53.6298ZM67.552 69.318C65.4187 67.8312 63.5167 66.1666 61.8461 64.3156C60.471 64.749 59.64 65.0135 58.9931 66.2489L54.4737 74.8449C53.2699 77.1381 50.5626 78.1307 48.1766 77.1597L45.0109 75.8679L50.824 93.407C50.9482 93.7798 51.1324 93.9706 51.2523 93.9922C51.3594 94.0096 51.565 93.9055 51.7921 93.6194L59.7727 83.5192C59.9654 83.2721 60.2824 83.1551 60.5866 83.2157L73.1333 85.6562C73.5102 85.7299 73.7159 85.6649 73.7801 85.5826C73.8615 85.4828 73.8744 85.2228 73.7287 84.8543L67.5473 69.3093L67.552 69.318ZM44.8954 35.5625C44.8954 31.7261 41.8111 28.6007 38.0157 28.6007C34.2246 28.6007 31.1318 31.7218 31.1318 35.5625C31.1318 39.3988 34.2204 42.5285 38.0157 42.5285C41.8111 42.5285 44.8954 39.4031 44.8954 35.5625ZM52.996 74.0565L57.5153 65.4605C58.3335 63.9 59.4473 63.3407 60.6596 62.9245C59.4731 61.4507 58.4235 59.8685 57.5111 58.1909C56.4144 56.1665 55.5106 53.9731 54.8037 51.6322C54.3282 52.2261 53.8184 52.807 53.2701 53.3618C49.1919 57.4887 43.7774 59.7557 38.0114 59.7557C32.2455 59.7557 26.8312 57.4842 22.7571 53.3618C14.3524 44.8482 14.3524 30.9943 22.7571 22.4805C26.831 18.3581 32.2499 16.0866 38.0114 16.0866C43.773 16.0866 49.1917 18.3581 53.2657 22.4805C55.3605 24.6003 56.9626 27.0581 58.0422 29.7978C62.6858 29.0349 66.7254 27.9424 70.1348 26.5207L67.149 24.1668C66.0909 23.3259 65.4612 22.2205 65.277 20.8767L63.9319 11.2404C63.6963 9.52805 62.2312 8.27961 60.522 8.33599L50.9093 8.67844C49.5556 8.72179 48.369 8.28397 47.3794 7.37796L40.2341 0.871326C38.9618 -0.290442 37.0471 -0.290442 35.7747 0.871326L28.6294 7.38228C27.6442 8.28827 26.4576 8.72605 25.104 8.68277L15.487 8.34032C13.7777 8.28396 12.317 9.53238 12.0771 11.2447L10.7405 20.8811C10.5477 22.2248 9.91799 23.3302 8.86422 24.1668L1.28193 30.1576C-0.0632139 31.2239 -0.397251 33.1313 0.506569 34.6008L5.59992 42.8543C6.31103 44.0074 6.53378 45.2645 6.25534 46.591L4.25057 56.1146C3.89502 57.8052 4.8503 59.4828 6.47807 60.0159L15.6282 63.0243C16.9091 63.4491 17.8772 64.2684 18.5026 65.4648L23.0135 74.0608C23.8145 75.5867 25.6137 76.2456 27.203 75.5997L36.1217 71.954C37.3683 71.4512 38.6278 71.4512 39.8658 71.954L48.7846 75.5997C50.3738 76.2455 52.173 75.5867 52.9741 74.0608L52.996 74.0565ZM25.9659 77.5373C24.1668 77.5373 22.449 76.549 21.5537 74.8497L17.0429 66.2537C16.6188 65.4474 15.9891 64.9143 15.128 64.6282L8.97224 62.6038L0.122009 84.8637C-0.0236357 85.2278 -0.00650611 85.4923 0.0706043 85.592C0.13486 85.67 0.340477 85.7394 0.717448 85.6657L13.2641 83.2252C13.5683 83.1645 13.881 83.2815 14.0781 83.5286L22.0629 93.6289C22.2857 93.9106 22.4956 94.019 22.5984 93.9973C22.7183 93.9756 22.9025 93.7849 23.0268 93.4121L28.4929 76.905L27.8503 77.1694C27.2334 77.4208 26.5952 77.5422 25.9654 77.5422L25.9659 77.5373ZM76.7887 72.2835C73.8415 71.1347 71.1941 69.7693 68.8381 68.187C68.7567 68.1047 68.6624 68.0397 68.5553 67.9963C66.4092 66.5225 64.5115 64.8622 62.8622 63.0112C62.7894 62.8378 62.6652 62.7034 62.5152 62.6167C56.2481 55.3299 53.7164 45.173 54.8216 31.9696C61.6756 31.1329 67.433 29.646 72.0214 27.5393C72.0856 27.5177 72.1456 27.4916 72.2013 27.457C73.8891 26.668 75.4227 25.7967 76.7849 24.8387C81.874 28.415 89.2592 30.8121 98.7474 31.9695C100.482 52.6559 93.2941 65.8505 76.7849 72.2835L76.7887 72.2835ZM92.9894 37.9775C92.9894 37.5701 92.7024 37.2146 92.304 37.1409C86.4309 36.0355 81.3419 34.3623 77.1736 32.1688C76.9295 32.0431 76.6425 32.0431 76.4026 32.1688C72.2302 34.3623 67.1411 36.0355 61.2722 37.1409C60.8738 37.2146 60.5868 37.5701 60.5868 37.9775C60.6253 51.4462 65.8087 60.4538 76.4278 65.5042C76.5392 65.5562 76.6634 65.5865 76.7833 65.5865C76.9033 65.5865 77.0275 65.5605 77.1389 65.5042C87.7583 60.4497 92.9415 51.4462 92.9799 37.9775H92.9894ZM76.7887 33.8768C80.8583 35.9618 85.7375 37.5744 91.3061 38.6754C91.1005 51.0466 86.474 59.0488 76.7887 63.8006C67.1032 59.054 62.4764 51.0477 62.2714 38.6754C67.8317 37.5744 72.7109 35.9618 76.7887 33.8768ZM81.8007 44.1633L74.4926 51.6323L71.8366 48.3422C71.5453 47.9781 71.0141 47.9261 70.6586 48.2208C70.2988 48.5156 70.2474 49.0531 70.5387 49.4129L73.7857 53.4313C73.9356 53.6177 74.1584 53.7304 74.394 53.7434H74.4325C74.6553 53.7434 74.8695 53.6524 75.028 53.492L82.9958 45.3512C83.3213 45.0174 83.3213 44.4799 82.9915 44.1505C82.6616 43.8211 82.1304 43.821 81.8049 44.1548L81.8007 44.1633Z" fill="#164B88"/>
</svg>
